<?xml version="1.0" encoding="utf-8"?>
<!-- Svg Vector Icons : http://www.onlinewebfonts.com/icon -->
<!DOCTYPE svg PUBLIC "-//W3C//DTD SVG 1.1//EN" "http://www.w3.org/Graphics/SVG/1.1/DTD/svg11.dtd">
<svg version="1.1" xmlns="http://www.w3.org/2000/svg" xmlns:xlink="http://www.w3.org/1999/xlink" x="0px" y="0px" viewBox="0 0 1000 1000" width="14px" height="14px" enable-background="new 0 0 1000 1000" xml:space="preserve" style="fill:#FFFFFF;">
<metadata> Svg Vector Icons : http://www.onlinewebfonts.com/icon </metadata>
<g><path d="M919.9,990c-40.6-218.8-228.5-384.3-454.6-384.3c-5.9,0-11.4,0-17.1,0v205.2c1.2,10.3-1.6,21-9.4,28.9c-0.1,0.1-0.2,0.1-0.3,0.2c-6.2,6.6-14.9,10.8-24.6,10.8c-10.7,0-19.8-5.3-26.1-13.1l-340.3-381c-7.3-7.3-10.3-17.1-9.8-26.7c-0.5-9.6,2.6-19.3,9.8-26.7L389.5,20.3c13.6-13.7,35.6-13.7,49.1,0c7.8,7.9,10.6,18.6,9.4,28.9v206.3c284.1,0,514.4,235.2,514.4,525.2C962.5,855.2,947.2,925.9,919.9,990z M500.5,325.6c-17.8-0.6-35.2-2.3-52.4,0h-68.6v-35v-35V136.4L117.1,430.1l262.3,293.7V605.7v-35v-35h68.6c37.3,0,46.2-1,68.6,0C659.5,542.2,820,648.9,894,745.8C892.9,614.2,742.5,333.2,500.5,325.6z"/></g>
</svg>